<?xml version="1.0" standalone="no"?><svg xmlns="http://www.w3.org/2000/svg" viewBox="0 0 1440 320"><path fill="#ace0f9" fill-opacity="1" d="M0,96L10.9,85.3C21.8,75,44,53,65,69.3C87.3,85,109,139,131,144C152.7,149,175,107,196,90.7C218.2,75,240,85,262,85.3C283.6,85,305,75,327,85.3C349.1,96,371,128,393,122.7C414.5,117,436,75,458,53.3C480,32,502,32,524,64C545.5,96,567,160,589,181.3C610.9,203,633,181,655,176C676.4,171,698,181,720,165.3C741.8,149,764,107,785,122.7C807.3,139,829,213,851,234.7C872.7,256,895,224,916,229.3C938.2,235,960,277,982,288C1003.6,299,1025,277,1047,261.3C1069.1,245,1091,235,1113,224C1134.5,213,1156,203,1178,170.7C1200,139,1222,85,1244,74.7C1265.5,64,1287,96,1309,112C1330.9,128,1353,128,1375,112C1396.4,96,1418,64,1429,48L1440,32L1440,320L1429.1,320C1418.2,320,1396,320,1375,320C1352.7,320,1331,320,1309,320C1287.3,320,1265,320,1244,320C1221.8,320,1200,320,1178,320C1156.4,320,1135,320,1113,320C1090.9,320,1069,320,1047,320C1025.5,320,1004,320,982,320C960,320,938,320,916,320C894.5,320,873,320,851,320C829.1,320,807,320,785,320C763.6,320,742,320,720,320C698.2,320,676,320,655,320C632.7,320,611,320,589,320C567.3,320,545,320,524,320C501.8,320,480,320,458,320C436.4,320,415,320,393,320C370.9,320,349,320,327,320C305.5,320,284,320,262,320C240,320,218,320,196,320C174.5,320,153,320,131,320C109.1,320,87,320,65,320C43.6,320,22,320,11,320L0,320Z"></path></svg>