<?xml version="1.0" standalone="no"?><svg xmlns="http://www.w3.org/2000/svg" viewBox="0 0 1440 320"><path fill="#ace0f9" fill-opacity="1" d="M0,192L12,208C24,224,48,256,72,266.7C96,277,120,267,144,245.3C168,224,192,192,216,170.7C240,149,264,139,288,117.3C312,96,336,64,360,85.3C384,107,408,181,432,208C456,235,480,213,504,176C528,139,552,85,576,90.7C600,96,624,160,648,192C672,224,696,224,720,213.3C744,203,768,181,792,192C816,203,840,245,864,261.3C888,277,912,267,936,250.7C960,235,984,213,1008,176C1032,139,1056,85,1080,74.7C1104,64,1128,96,1152,144C1176,192,1200,256,1224,272C1248,288,1272,256,1296,240C1320,224,1344,224,1368,224C1392,224,1416,224,1428,224L1440,224L1440,0L1428,0C1416,0,1392,0,1368,0C1344,0,1320,0,1296,0C1272,0,1248,0,1224,0C1200,0,1176,0,1152,0C1128,0,1104,0,1080,0C1056,0,1032,0,1008,0C984,0,960,0,936,0C912,0,888,0,864,0C840,0,816,0,792,0C768,0,744,0,720,0C696,0,672,0,648,0C624,0,600,0,576,0C552,0,528,0,504,0C480,0,456,0,432,0C408,0,384,0,360,0C336,0,312,0,288,0C264,0,240,0,216,0C192,0,168,0,144,0C120,0,96,0,72,0C48,0,24,0,12,0L0,0Z"></path></svg>